<svg width="100" height="100" viewBox="0 0 100 100" fill="none" xmlns="http://www.w3.org/2000/svg">
<path fill-rule="evenodd" clip-rule="evenodd" d="M100 50C100 77.6142 77.6142 100 50 100C22.3858 100 0 77.6142 0 50C0 22.3858 22.3858 0 50 0C77.6142 0 100 22.3858 100 50ZM7.5 50C7.5 73.4721 26.5279 92.5 50 92.5C73.4721 92.5 92.5 73.4721 92.5 50C92.5 26.5279 73.4721 7.5 50 7.5C26.5279 7.5 7.5 26.5279 7.5 50ZM25.3649 59.4243C23.4139 60.1604 21.2103 59.1779 20.7232 57.1503C19.2986 51.2213 19.6956 44.9674 21.9112 39.2233C24.5821 32.2988 29.7088 26.6 36.3132 23.2141C42.9176 19.8282 50.5373 18.9922 57.7187 20.8656C64.9001 22.7391 71.1405 27.1908 75.2492 33.3716C79.3578 39.5523 81.0473 47.0293 79.9951 54.376C78.943 61.7228 75.2229 68.4251 69.5446 73.2042C63.8664 77.9833 56.6274 80.5047 49.2088 80.2872C43.0549 80.1068 37.1348 78.0523 32.2193 74.444C30.5383 73.21 30.4852 70.7979 31.9192 69.2839C33.3531 67.7698 35.7293 67.7361 37.4603 68.899C40.987 71.2683 45.1326 72.6129 49.4301 72.7389C54.994 72.9019 60.4232 71.0109 64.6819 67.4266C68.9406 63.8423 71.7307 58.8156 72.5198 53.3055C73.3089 47.7954 72.0418 42.1876 68.9603 37.5521C65.8788 32.9166 61.1986 29.5778 55.8125 28.1727C50.4265 26.7676 44.7116 27.3946 39.7583 29.934C34.805 32.4735 30.96 36.7476 28.9569 41.941C27.4096 45.9523 27.0449 50.2951 27.8645 54.4641C28.2667 56.5102 27.316 58.6881 25.3649 59.4243ZM58.349 44.4653C60.9394 44.4653 63.0394 42.3653 63.0394 39.7749C63.0394 37.1844 60.9394 35.0844 58.349 35.0844C55.7585 35.0844 53.6585 37.1844 53.6585 39.7749C53.6585 42.3653 55.7585 44.4653 58.349 44.4653Z" fill="#000"/>
</svg>
