<svg width="108" height="108" viewBox="0 0 108 108" fill="none" xmlns="http://www.w3.org/2000/svg">
<path fill-rule="evenodd" clip-rule="evenodd" d="M69.0571 10.5341C63.3491 8.55678 57.3075 7.72309 51.2772 8.08065C45.247 8.43821 39.3463 9.98 33.9119 12.618C28.4776 15.256 23.616 18.9386 19.6048 23.4554C15.5937 27.9722 12.5114 33.2349 10.5341 38.9429C8.55678 44.6509 7.72309 50.6925 8.08065 56.7228C8.43821 62.753 9.98 68.6537 12.618 74.0881C15.256 79.5224 18.9386 84.384 23.4554 88.3952C27.9722 92.4063 33.2349 95.4886 38.9429 97.4659C44.651 99.4432 50.6925 100.277 56.7228 99.9193C62.753 99.5618 68.6537 98.02 74.0881 95.382C79.5224 92.744 84.384 89.0614 88.3952 84.5446C92.4063 80.0278 95.4886 74.7651 97.4659 69.0571C99.4432 63.3491 100.277 57.3075 99.9193 51.2773C99.5618 45.247 98.02 39.3463 95.382 33.9119C92.744 28.4776 89.0614 23.616 84.5446 19.6048C80.0278 15.5937 74.7651 12.5114 69.0571 10.5341ZM50.8037 0.0946772C57.8827 -0.325064 64.975 0.653608 71.6757 2.97482C78.3764 5.29602 84.5543 8.9143 89.8567 13.6231C95.1591 18.3318 99.4821 24.0389 102.579 30.4184C105.676 36.7978 107.486 43.7248 107.905 50.8037C108.325 57.8827 107.346 64.975 105.025 71.6757C102.704 78.3764 99.0857 84.5543 94.3769 89.8567C89.6682 95.1591 83.9611 99.4821 77.5817 102.579C71.2022 105.676 64.2752 107.486 57.1963 107.905C50.1173 108.325 43.025 107.346 36.3243 105.025C29.6236 102.704 23.4457 99.0857 18.1433 94.3769C12.8409 89.6682 8.51793 83.9611 5.42114 77.5816C2.32435 71.2022 0.514419 64.2752 0.0946774 57.1963C-0.325064 50.1173 0.653607 43.025 2.97481 36.3243C5.29602 29.6236 8.9143 23.4457 13.6231 18.1433C18.3318 12.8409 24.0389 8.51792 30.4184 5.42114C36.7978 2.32435 43.7248 0.514418 50.8037 0.0946772ZM59.6993 32.6066C54.4199 31.2293 48.8182 31.8439 43.9629 34.333C39.1077 36.8222 35.3387 41.0117 33.3752 46.1023C31.4117 51.1929 31.391 56.8282 33.3172 61.9331L25.8322 64.7572C23.2122 57.8133 23.2403 50.1478 25.9112 43.2233C28.5821 36.2988 33.7088 30.6 40.3132 27.2141C46.9176 23.8282 54.5373 22.9922 61.7187 24.8656C68.9001 26.7391 75.1405 31.1908 79.2492 37.3716C83.3578 43.5523 85.0473 51.0293 83.9951 58.3761C82.943 65.7228 79.2229 72.4251 73.5446 77.2042C67.8664 81.9833 60.6274 84.5047 53.2088 84.2872C45.7903 84.0698 38.7114 81.1288 33.3228 76.0253L38.8239 70.2169C42.7854 73.9687 47.9894 76.1308 53.4432 76.2907C58.897 76.4505 64.2188 74.5969 68.3932 71.0836C72.5676 67.5702 75.3024 62.643 76.0759 57.2419C76.8494 51.8409 75.6074 46.3441 72.5869 41.8004C69.5664 37.2566 64.9788 33.9838 59.6993 32.6066ZM62.349 48.4653C64.9394 48.4653 67.0394 46.3653 67.0394 43.7749C67.0394 41.1844 64.9394 39.0844 62.349 39.0844C59.7585 39.0844 57.6585 41.1844 57.6585 43.7749C57.6585 46.3653 59.7585 48.4653 62.349 48.4653Z" fill="black"/>
</svg>
